# xmcd CD database file
#
# Track frame offsets:
#	150
#	22478
#	48574
#	76890
#	108394
#	134088
#	159771
#	181104
#	199983
#	217322
#	239606
#
# Disc length: 3272 seconds
#
# Revision: 0
# Processed by: cddbd v1.4PL0 Copyright (c) Steve Scherf et al.
# Submitted via: CDex 1.51
#
DISCID=a40cc60b
DTITLE=Ramsey Embick - Getting Your Feet Wet
DYEAR=1996
DGENRE=Jazz
TTITLE0=Getting Your Feet Wet
TTITLE1=Comecarde Novo
TTITLE2=Fran's Dream
TTITLE3=Speak Like a Child
TTITLE4=Dulce de Coco
TTITLE5=Fall
TTITLE6=2 Bass Hit
TTITLE7=I'm Falling In Love
TTITLE8=Miles' Tune
TTITLE9=Gravity
TTITLE10=More Dream
EXTD=YEAR: 1996
EXTT0=
EXTT1=
EXTT2=
EXTT3=
EXTT4=
EXTT5=
EXTT6=
EXTT7=
EXTT8=
EXTT9=
EXTT10=
PLAYORDER=
